<?xml version="1.0" standalone="no"?><svg xmlns:xlink="http://www.w3.org/1999/xlink" xmlns="http://www.w3.org/2000/svg" viewBox="0 0 2000 857.1428571428571" preserveAspectRatio="xMaxYMax slice"><g transform="scale(1.6611295681063123)"><rect x="0" y="0" width="1204" height="516" fill="#ffffff"/><rect x="0" y="0" width="86" height="86" fill="#feb54e"/><path d="M 0 0 A 86 86 0 0 1  86 86 L 0 0 A 86 86 0 0 0 86 86" fill="#ffbde1"/><rect x="86" y="0" width="86" height="86" fill="#ffffff"/><rect x="86" y="0" width="43" height="43" fill="#fffeff"/><path d="M 86 43 A 43 43 0 0 1  129 0 L 129 43" fill="#ff73c0"/><rect x="129" y="0" width="43" height="43" fill="#ffbee2"/><path d="M 129 43 A 43 43 0 0 0 172 0 L 129 0" fill="#fec677"/><rect x="86" y="43" width="43" height="43" fill="#ff85c8"/><path d="M 86 86 A 43 43 0 0 0 129 43 L 86 43" fill="#fe9705"/><rect x="129" y="43" width="43" height="43" fill="#ffc1e3"/><path d="M 129 43 A 43 43 0 0 1  172 86 L 129 43 A 43 43 0 0 0 172 86" fill="#ff9cd2"/><rect x="172" y="0" width="86" height="86" fill="#ffffff"/><rect x="172" y="0" width="43" height="43" fill="#ffe4be"/><path d="M 172 43 A 43 43 0 0 1  215 0 L 172 43 A 43 43 0 0 0 215 0" fill="#ffd8ee"/><rect x="215" y="0" width="43" height="43" fill="#ff85c8"/><path d="M 215 43 A 43 43 0 0 1  258 0 L 258 43" fill="#ffb5de"/><rect x="172" y="43" width="43" height="43" fill="#ff7ec5"/><path d="M 172 43 A 43 43 0 0 1 215 86 L 172 86" fill="#ff87c9"/><rect x="215" y="43" width="43" height="43" fill="#feb349"/><path d="M 215 86 A 43 43 0 0 1  258 43 L 215 86 A 43 43 0 0 0 258 43" fill="#ffa3d6"/><rect x="258" y="0" width="86" height="86" fill="#ffffff"/><rect x="258" y="0" width="43" height="43" fill="#ffe6c4"/><path d="M 258 0 A 43 43 0 0 1  301 43 L 258 0 A 43 43 0 0 0 301 43" fill="#ffd4ec"/><rect x="301" y="0" width="43" height="43" fill="#fe9f19"/><path d="M 301 0 A 43 43 0 0 1  344 43 L 301 0 A 43 43 0 0 0 344 43" fill="#fe9b10"/><rect x="258" y="43" width="43" height="43" fill="#ff99d1"/><path d="M 258 43 A 43 43 0 0 0 301 86 L 301 43" fill="#ffeacd"/><rect x="301" y="43" width="43" height="43" fill="#fe9e18"/><path d="M 301 86 A 43 43 0 0 1  344 43 L 301 86 A 43 43 0 0 0 344 43" fill="#fec16a"/><rect x="344" y="0" width="86" height="86" fill="#ffffff"/><rect x="344" y="0" width="43" height="43" fill="#ffb1dc"/><path d="M 344 43 A 43 43 0 0 1  387 0 L 344 43 A 43 43 0 0 0 387 0" fill="#ff84c8"/><rect x="387" y="0" width="43" height="43" fill="#fffaf2"/><path d="M 387 43 A 43 43 0 0 1  430 0 L 387 43 A 43 43 0 0 0 430 0" fill="#feac39"/><rect x="344" y="43" width="43" height="43" fill="#ff97d0"/><path d="M 344 86 A 43 43 0 0 0 387 43 L 344 43" fill="#ff9ad1"/><rect x="387" y="43" width="43" height="43" fill="#ffdfb3"/><path d="M 387 43 A 43 43 0 0 1 430 86 L 387 86" fill="#ff7ec5"/><rect x="430" y="0" width="86" height="86" fill="#ffffff"/><rect x="430" y="0" width="43" height="43" fill="#fff2e1"/><path d="M 430 0 A 43 43 0 0 1  473 43 L 430 0 A 43 43 0 0 0 473 43" fill="#ff8ecc"/><rect x="473" y="0" width="43" height="43" fill="#fe9a0d"/><path d="M 473 43 A 43 43 0 0 1  516 0 L 473 43 A 43 43 0 0 0 516 0" fill="#fff0db"/><rect x="430" y="43" width="43" height="43" fill="#fff8ef"/><path d="M 430 86 A 43 43 0 0 1  473 43 L 473 86" fill="#fffafd"/><rect x="473" y="43" width="43" height="43" fill="#ffdcac"/><path d="M 473 86 A 43 43 0 0 1  516 43 L 516 86" fill="#ff97d0"/><rect x="516" y="0" width="86" height="86" fill="#ffce8a"/><path d="M 516 0 A 86 86 0 0 1 602 86 L 516 86" fill="#ffb1dc"/><rect x="602" y="0" width="86" height="86" fill="#ffebd0"/><path d="M 602 0 A 86 86 0 0 1 688 86 L 602 86" fill="#ffcc85"/><rect x="688" y="0" width="86" height="86" fill="#ffffff"/><rect x="688" y="0" width="43" height="43" fill="#ffdff0"/><path d="M 688 43 A 43 43 0 0 0 731 0 L 688 0" fill="#fff5e7"/><rect x="731" y="0" width="43" height="43" fill="#ffedd5"/><path d="M 731 0 A 43 43 0 0 0 774 43 L 774 0" fill="#ffe4bf"/><rect x="688" y="43" width="43" height="43" fill="#ffbce1"/><path d="M 688 43 A 43 43 0 0 1  731 86 L 688 43 A 43 43 0 0 0 731 86" fill="#ffdcef"/><rect x="731" y="43" width="43" height="43" fill="#fffcfe"/><path d="M 731 86 A 43 43 0 0 0 774 43 L 731 43" fill="#ffd0ea"/><rect x="774" y="0" width="86" height="86" fill="#ff5fb7"/><path d="M 774 86 A 86 86 0 0 1  860 0 L 860 86" fill="#ff5cb6"/><rect x="860" y="0" width="86" height="86" fill="#ffe6c2"/><path d="M 860 86 A 86 86 0 0 1  946 0 L 946 86" fill="#fff7ed"/><rect x="946" y="0" width="86" height="86" fill="#ffffff"/><rect x="946" y="0" width="43" height="43" fill="#ff86c8"/><path d="M 946 0 A 43 43 0 0 0 989 43 L 989 0" fill="#fff2e1"/><rect x="989" y="0" width="43" height="43" fill="#ffa5d6"/><path d="M 989 43 A 43 43 0 0 1  1032 0 L 989 43 A 43 43 0 0 0 1032 0" fill="#ffecd1"/><rect x="946" y="43" width="43" height="43" fill="#ffb7df"/><path d="M 946 43 A 43 43 0 0 0 989 86 L 989 43" fill="#ff9cd2"/><rect x="989" y="43" width="43" height="43" fill="#ff99d1"/><path d="M 989 43 A 43 43 0 0 0 1032 86 L 1032 43" fill="#ffebf6"/><rect x="1032" y="0" width="86" height="86" fill="#ffffff"/><rect x="1032" y="0" width="43" height="43" fill="#fff9f1"/><path d="M 1032 0 A 43 43 0 0 1 1075 43 L 1032 43" fill="#ffacda"/><rect x="1075" y="0" width="43" height="43" fill="#ffca81"/><path d="M 1075 43 A 43 43 0 0 1  1118 0 L 1075 43 A 43 43 0 0 0 1118 0" fill="#ff74c1"/><rect x="1032" y="43" width="43" height="43" fill="#fff4e6"/><path d="M 1032 86 A 43 43 0 0 1  1075 43 L 1032 86 A 43 43 0 0 0 1075 43" fill="#ffcd86"/><rect x="1075" y="43" width="43" height="43" fill="#fea82f"/><path d="M 1075 86 A 43 43 0 0 0 1118 43 L 1075 43" fill="#ff7cc4"/><rect x="1118" y="0" width="86" height="86" fill="#ffffff"/><rect x="1118" y="0" width="43" height="43" fill="#fff3f9"/><path d="M 1118 0 A 43 43 0 0 0 1161 43 L 1161 0" fill="#fff2e0"/><rect x="1161" y="0" width="43" height="43" fill="#fea323"/><path d="M 1161 43 A 43 43 0 0 0 1204 0 L 1161 0" fill="#ffffff"/><rect x="1118" y="43" width="43" height="43" fill="#ffd497"/><path d="M 1118 86 A 43 43 0 0 1  1161 43 L 1118 86 A 43 43 0 0 0 1161 43" fill="#ffdbef"/><rect x="1161" y="43" width="43" height="43" fill="#ff7dc4"/><path d="M 1161 86 A 43 43 0 0 1  1204 43 L 1161 86 A 43 43 0 0 0 1204 43" fill="#fec87c"/><rect x="0" y="86" width="86" height="86" fill="#ffffff"/><rect x="0" y="86" width="43" height="43" fill="#fec77a"/><path d="M 0 129 A 43 43 0 0 0 43 86 L 0 86" fill="#ff66ba"/><rect x="43" y="86" width="43" height="43" fill="#ff8dcc"/><path d="M 43 129 A 43 43 0 0 1  86 86 L 43 129 A 43 43 0 0 0 86 86" fill="#ffecd1"/><rect x="0" y="129" width="43" height="43" fill="#fea528"/><path d="M 0 172 A 43 43 0 0 1  43 129 L 43 172" fill="#ff9cd2"/><rect x="43" y="129" width="43" height="43" fill="#ffdfb3"/><path d="M 43 129 A 43 43 0 0 1 86 172 L 43 172" fill="#ff74c0"/><rect x="86" y="86" width="86" height="86" fill="#ffffff"/><rect x="86" y="86" width="43" height="43" fill="#ff69bb"/><path d="M 86 129 A 43 43 0 0 1  129 86 L 86 129 A 43 43 0 0 0 129 86" fill="#ffe1b8"/><rect x="129" y="86" width="43" height="43" fill="#fea324"/><path d="M 129 86 A 43 43 0 0 1 172 129 L 129 129" fill="#fff1de"/><rect x="86" y="129" width="43" height="43" fill="#feb855"/><path d="M 86 129 A 43 43 0 0 0 129 172 L 129 129" fill="#ff9ad2"/><rect x="129" y="129" width="43" height="43" fill="#ffebce"/><path d="M 129 172 A 43 43 0 0 1  172 129 L 129 172 A 43 43 0 0 0 172 129" fill="#fff6e9"/><rect x="172" y="86" width="86" height="86" fill="#ff55b3"/><path d="M 172 172 A 86 86 0 0 1  258 86 L 172 172 A 86 86 0 0 0 258 86" fill="#fea323"/><rect x="258" y="86" width="86" height="86" fill="#ffffff"/><rect x="258" y="86" width="43" height="43" fill="#ffd4ec"/><path d="M 258 129 A 43 43 0 0 0 301 86 L 258 86" fill="#feaf40"/><rect x="301" y="86" width="43" height="43" fill="#fffbf6"/><path d="M 301 86 A 43 43 0 0 1  344 129 L 301 86 A 43 43 0 0 0 344 129" fill="#fe9f1a"/><rect x="258" y="129" width="43" height="43" fill="#ff58b4"/><path d="M 258 129 A 43 43 0 0 1  301 172 L 258 129 A 43 43 0 0 0 301 172" fill="#ffd6ed"/><rect x="301" y="129" width="43" height="43" fill="#ff51b1"/><path d="M 301 129 A 43 43 0 0 1 344 172 L 301 172" fill="#ff5fb7"/><rect x="344" y="86" width="86" height="86" fill="#ffaad9"/><path d="M 344 172 A 86 86 0 0 1  430 86 L 430 172" fill="#fe9603"/><rect x="430" y="86" width="86" height="86" fill="#ffffff"/><rect x="430" y="86" width="43" height="43" fill="#ff9dd3"/><path d="M 430 129 A 43 43 0 0 1  473 86 L 473 129" fill="#fff0db"/><rect x="473" y="86" width="43" height="43" fill="#ffdcaa"/><path d="M 473 129 A 43 43 0 0 0 516 86 L 473 86" fill="#feac39"/><rect x="430" y="129" width="43" height="43" fill="#ffebf6"/><path d="M 430 172 A 43 43 0 0 1  473 129 L 473 172" fill="#ffcf8b"/><rect x="473" y="129" width="43" height="43" fill="#ffe5c2"/><path d="M 473 129 A 43 43 0 0 1 516 172 L 473 172" fill="#fec574"/><rect x="516" y="86" width="86" height="86" fill="#ffa0d4"/><path d="M 516 86 A 86 86 0 0 0 602 172 L 602 86" fill="#ffdcac"/><rect x="602" y="86" width="86" height="86" fill="#ff82c7"/><path d="M 602 86 A 86 86 0 0 1 688 172 L 602 172" fill="#ffa7d8"/><rect x="688" y="86" width="86" height="86" fill="#ffffff"/><rect x="688" y="86" width="43" height="43" fill="#ffbae0"/><path d="M 688 129 A 43 43 0 0 1  731 86 L 731 129" fill="#ffa5d6"/><rect x="731" y="86" width="43" height="43" fill="#ffca81"/><path d="M 731 129 A 43 43 0 0 1  774 86 L 774 129" fill="#ffd9a3"/><rect x="688" y="129" width="43" height="43" fill="#ffe9cb"/><path d="M 688 129 A 43 43 0 0 1 731 172 L 688 172" fill="#ff90cd"/><rect x="731" y="129" width="43" height="43" fill="#ffa8d8"/><path d="M 731 172 A 43 43 0 0 1  774 129 L 731 172 A 43 43 0 0 0 774 129" fill="#ffa0d4"/><rect x="774" y="86" width="86" height="86" fill="#ffffff"/><rect x="774" y="86" width="43" height="43" fill="#ffb3dd"/><path d="M 774 86 A 43 43 0 0 1  817 129 L 774 86 A 43 43 0 0 0 817 129" fill="#ffe5c2"/><rect x="817" y="86" width="43" height="43" fill="#ff6abc"/><path d="M 817 86 A 43 43 0 0 0 860 129 L 860 86" fill="#ffe6f4"/><rect x="774" y="129" width="43" height="43" fill="#ff7ec5"/><path d="M 774 129 A 43 43 0 0 1  817 172 L 774 129 A 43 43 0 0 0 817 172" fill="#ffe2f2"/><rect x="817" y="129" width="43" height="43" fill="#fe9e17"/><path d="M 817 172 A 43 43 0 0 1  860 129 L 860 172" fill="#ffcee9"/><rect x="860" y="86" width="86" height="86" fill="#fff8ef"/><path d="M 860 172 A 86 86 0 0 1  946 86 L 860 172 A 86 86 0 0 0 946 86" fill="#ff82c7"/><rect x="946" y="86" width="86" height="86" fill="#ffffff"/><rect x="946" y="86" width="43" height="43" fill="#ff8ecc"/><path d="M 946 129 A 43 43 0 0 1  989 86 L 989 129" fill="#ffd59b"/><rect x="989" y="86" width="43" height="43" fill="#ff9ad2"/><path d="M 989 86 A 43 43 0 0 1 1032 129 L 989 129" fill="#fffafd"/><rect x="946" y="129" width="43" height="43" fill="#ff76c1"/><path d="M 946 172 A 43 43 0 0 1  989 129 L 989 172" fill="#feb54d"/><rect x="989" y="129" width="43" height="43" fill="#ff97d0"/><path d="M 989 172 A 43 43 0 0 1  1032 129 L 989 172 A 43 43 0 0 0 1032 129" fill="#fea72d"/><rect x="1032" y="86" width="86" height="86" fill="#ffffff"/><rect x="1032" y="86" width="43" height="43" fill="#feb246"/><path d="M 1032 129 A 43 43 0 0 1  1075 86 L 1032 129 A 43 43 0 0 0 1075 86" fill="#ffbce1"/><rect x="1075" y="86" width="43" height="43" fill="#fff3fa"/><path d="M 1075 129 A 43 43 0 0 0 1118 86 L 1075 86" fill="#fe9e17"/><rect x="1032" y="129" width="43" height="43" fill="#ff70bf"/><path d="M 1032 172 A 43 43 0 0 0 1075 129 L 1032 129" fill="#ff79c3"/><rect x="1075" y="129" width="43" height="43" fill="#ff56b3"/><path d="M 1075 129 A 43 43 0 0 1  1118 172 L 1075 129 A 43 43 0 0 0 1118 172" fill="#ffe7c6"/><rect x="1118" y="86" width="86" height="86" fill="#ffffff"/><rect x="1118" y="86" width="43" height="43" fill="#ff5db6"/><path d="M 1118 129 A 43 43 0 0 1  1161 86 L 1161 129" fill="#ffdfb2"/><rect x="1161" y="86" width="43" height="43" fill="#fea931"/><path d="M 1161 86 A 43 43 0 0 1 1204 129 L 1161 129" fill="#ffa1d5"/><rect x="1118" y="129" width="43" height="43" fill="#feb143"/><path d="M 1118 172 A 43 43 0 0 0 1161 129 L 1118 129" fill="#ffdbef"/><rect x="1161" y="129" width="43" height="43" fill="#febb5d"/><path d="M 1161 129 A 43 43 0 0 0 1204 172 L 1204 129" fill="#fff4e4"/><rect x="0" y="172" width="86" height="86" fill="#ffffff"/><rect x="0" y="172" width="43" height="43" fill="#ffe4f3"/><path d="M 0 172 A 43 43 0 0 1  43 215 L 0 172 A 43 43 0 0 0 43 215" fill="#fea220"/><rect x="43" y="172" width="43" height="43" fill="#feb855"/><path d="M 43 215 A 43 43 0 0 1  86 172 L 86 215" fill="#ff6ebe"/><rect x="0" y="215" width="43" height="43" fill="#feb246"/><path d="M 0 215 A 43 43 0 0 0 43 258 L 43 215" fill="#fffafd"/><rect x="43" y="215" width="43" height="43" fill="#ffdeb1"/><path d="M 43 215 A 43 43 0 0 1  86 258 L 43 215 A 43 43 0 0 0 86 258" fill="#ffe5f3"/><rect x="86" y="172" width="86" height="86" fill="#ffffff"/><rect x="86" y="172" width="43" height="43" fill="#ffb6de"/><path d="M 86 172 A 43 43 0 0 1 129 215 L 86 215" fill="#febc5f"/><rect x="129" y="172" width="43" height="43" fill="#fff7fb"/><path d="M 129 215 A 43 43 0 0 0 172 172 L 129 172" fill="#ffdcab"/><rect x="86" y="215" width="43" height="43" fill="#fff4fa"/><path d="M 86 215 A 43 43 0 0 1 129 258 L 86 258" fill="#ffd2eb"/><rect x="129" y="215" width="43" height="43" fill="#ffc3e4"/><path d="M 129 215 A 43 43 0 0 0 172 258 L 172 215" fill="#ff67bb"/><rect x="172" y="172" width="86" height="86" fill="#ffffff"/><rect x="172" y="172" width="43" height="43" fill="#ffaad9"/><path d="M 172 215 A 43 43 0 0 1  215 172 L 172 215 A 43 43 0 0 0 215 172" fill="#febf66"/><rect x="215" y="172" width="43" height="43" fill="#feb753"/><path d="M 215 215 A 43 43 0 0 1  258 172 L 258 215" fill="#ffd9ee"/><rect x="172" y="215" width="43" height="43" fill="#ff78c2"/><path d="M 172 258 A 43 43 0 0 0 215 215 L 172 215" fill="#fec87b"/><rect x="215" y="215" width="43" height="43" fill="#ff4fb0"/><path d="M 215 258 A 43 43 0 0 1  258 215 L 258 258" fill="#feaa32"/><rect x="258" y="172" width="86" height="86" fill="#ffffff"/><rect x="258" y="172" width="43" height="43" fill="#ff81c7"/><path d="M 258 172 A 43 43 0 0 1  301 215 L 258 172 A 43 43 0 0 0 301 215" fill="#fec676"/><rect x="301" y="172" width="43" height="43" fill="#ffa0d4"/><path d="M 301 172 A 43 43 0 0 1 344 215 L 301 215" fill="#fec36e"/><rect x="258" y="215" width="43" height="43" fill="#ff6bbd"/><path d="M 258 215 A 43 43 0 0 0 301 258 L 301 215" fill="#fff3e2"/><rect x="301" y="215" width="43" height="43" fill="#ffe3bc"/><path d="M 301 258 A 43 43 0 0 1  344 215 L 344 258" fill="#ffa7d7"/><rect x="344" y="172" width="86" height="86" fill="#ffffff"/><rect x="344" y="172" width="43" height="43" fill="#ffcd87"/><path d="M 344 172 A 43 43 0 0 1 387 215 L 344 215" fill="#ffe8c9"/><rect x="387" y="172" width="43" height="43" fill="#ff76c1"/><path d="M 387 172 A 43 43 0 0 0 430 215 L 430 172" fill="#ffddf0"/><rect x="344" y="215" width="43" height="43" fill="#ff93ce"/><path d="M 344 215 A 43 43 0 0 0 387 258 L 387 215" fill="#fec26c"/><rect x="387" y="215" width="43" height="43" fill="#ffe4f3"/><path d="M 387 215 A 43 43 0 0 0 430 258 L 430 215" fill="#ff72bf"/><rect x="430" y="172" width="86" height="86" fill="#ffffff"/><rect x="430" y="172" width="43" height="43" fill="#ffc6e5"/><path d="M 430 172 A 43 43 0 0 1  473 215 L 430 172 A 43 43 0 0 0 473 215" fill="#fead3a"/><rect x="473" y="172" width="43" height="43" fill="#fffdfe"/><path d="M 473 172 A 43 43 0 0 0 516 215 L 516 172" fill="#ff89ca"/><rect x="430" y="215" width="43" height="43" fill="#ff72c0"/><path d="M 430 215 A 43 43 0 0 1 473 258 L 430 258" fill="#ff98d1"/><rect x="473" y="215" width="43" height="43" fill="#ff5ab5"/><path d="M 473 258 A 43 43 0 0 1  516 215 L 516 258" fill="#ffbce1"/><rect x="516" y="172" width="86" height="86" fill="#ffffff"/><rect x="516" y="172" width="43" height="43" fill="#ff88ca"/><path d="M 516 172 A 43 43 0 0 1 559 215 L 516 215" fill="#ffebcf"/><rect x="559" y="172" width="43" height="43" fill="#ffd395"/><path d="M 559 215 A 43 43 0 0 1  602 172 L 559 215 A 43 43 0 0 0 602 172" fill="#ff53b2"/><rect x="516" y="215" width="43" height="43" fill="#febf65"/><path d="M 516 258 A 43 43 0 0 0 559 215 L 516 215" fill="#fea72b"/><rect x="559" y="215" width="43" height="43" fill="#ffe4bd"/><path d="M 559 258 A 43 43 0 0 0 602 215 L 559 215" fill="#ffcc84"/><rect x="602" y="172" width="86" height="86" fill="#fff3e3"/><path d="M 602 172 A 86 86 0 0 1  688 258 L 602 172 A 86 86 0 0 0 688 258" fill="#ff5cb6"/><rect x="688" y="172" width="86" height="86" fill="#ffbfe2"/><path d="M 688 258 A 86 86 0 0 1  774 172 L 774 258" fill="#ffa6d7"/><rect x="774" y="172" width="86" height="86" fill="#fff2e0"/><path d="M 774 258 A 86 86 0 0 0 860 172 L 774 172" fill="#fff0da"/><rect x="860" y="172" width="86" height="86" fill="#ffffff"/><rect x="860" y="172" width="43" height="43" fill="#ff4fb0"/><path d="M 860 215 A 43 43 0 0 0 903 172 L 860 172" fill="#ff5bb5"/><rect x="903" y="172" width="43" height="43" fill="#ff64b9"/><path d="M 903 215 A 43 43 0 0 1  946 172 L 946 215" fill="#ff6bbc"/><rect x="860" y="215" width="43" height="43" fill="#feac37"/><path d="M 860 258 A 43 43 0 0 1  903 215 L 860 258 A 43 43 0 0 0 903 215" fill="#ff6abc"/><rect x="903" y="215" width="43" height="43" fill="#feb854"/><path d="M 903 215 A 43 43 0 0 1  946 258 L 903 215 A 43 43 0 0 0 946 258" fill="#feca7f"/><rect x="946" y="172" width="86" height="86" fill="#fff0f8"/><path d="M 946 258 A 86 86 0 0 1  1032 172 L 1032 258" fill="#ff59b4"/><rect x="1032" y="172" width="86" height="86" fill="#ffb3dd"/><path d="M 1032 172 A 86 86 0 0 1  1118 258 L 1032 172 A 86 86 0 0 0 1118 258" fill="#ffeff8"/><rect x="1118" y="172" width="86" height="86" fill="#ffffff"/><rect x="1118" y="172" width="43" height="43" fill="#ffdcaa"/><path d="M 1118 215 A 43 43 0 0 0 1161 172 L 1118 172" fill="#ff73c0"/><rect x="1161" y="172" width="43" height="43" fill="#ff53b2"/><path d="M 1161 215 A 43 43 0 0 0 1204 172 L 1161 172" fill="#ffcee9"/><rect x="1118" y="215" width="43" height="43" fill="#ffe8c8"/><path d="M 1118 215 A 43 43 0 0 1 1161 258 L 1118 258" fill="#ffdff1"/><rect x="1161" y="215" width="43" height="43" fill="#ffddf0"/><path d="M 1161 258 A 43 43 0 0 0 1204 215 L 1161 215" fill="#ff96d0"/><rect x="0" y="258" width="86" height="86" fill="#ff9ed3"/><path d="M 0 258 A 86 86 0 0 1 86 344 L 0 344" fill="#ff9bd2"/><rect x="86" y="258" width="86" height="86" fill="#ffffff"/><rect x="86" y="258" width="43" height="43" fill="#ffb3dd"/><path d="M 86 258 A 43 43 0 0 1 129 301 L 86 301" fill="#ffb0dc"/><rect x="129" y="258" width="43" height="43" fill="#ffc3e4"/><path d="M 129 258 A 43 43 0 0 1 172 301 L 129 301" fill="#ffc2e4"/><rect x="86" y="301" width="43" height="43" fill="#ffbbe1"/><path d="M 86 301 A 43 43 0 0 0 129 344 L 129 301" fill="#ff96d0"/><rect x="129" y="301" width="43" height="43" fill="#fff8fc"/><path d="M 129 344 A 43 43 0 0 0 172 301 L 129 301" fill="#ff96d0"/><rect x="172" y="258" width="86" height="86" fill="#ffffff"/><rect x="172" y="258" width="43" height="43" fill="#ff7ec5"/><path d="M 172 301 A 43 43 0 0 0 215 258 L 172 258" fill="#fe9502"/><rect x="215" y="258" width="43" height="43" fill="#fffdfa"/><path d="M 215 301 A 43 43 0 0 0 258 258 L 215 258" fill="#ffd191"/><rect x="172" y="301" width="43" height="43" fill="#ff8dcc"/><path d="M 172 301 A 43 43 0 0 1  215 344 L 172 301 A 43 43 0 0 0 215 344" fill="#ff7ec5"/><rect x="215" y="301" width="43" height="43" fill="#ff7cc4"/><path d="M 215 301 A 43 43 0 0 1  258 344 L 215 301 A 43 43 0 0 0 258 344" fill="#ffdeb0"/><rect x="258" y="258" width="86" height="86" fill="#ff7ec5"/><path d="M 258 258 A 86 86 0 0 1 344 344 L 258 344" fill="#ffedf7"/><rect x="344" y="258" width="86" height="86" fill="#ffa4d6"/><path d="M 344 344 A 86 86 0 0 0 430 258 L 344 258" fill="#ffdcef"/><rect x="430" y="258" width="86" height="86" fill="#ffffff"/><rect x="430" y="258" width="43" height="43" fill="#ffe6c3"/><path d="M 430 301 A 43 43 0 0 1  473 258 L 473 301" fill="#ffe6c4"/><rect x="473" y="258" width="43" height="43" fill="#ffeacd"/><path d="M 473 258 A 43 43 0 0 0 516 301 L 516 258" fill="#ffd7a0"/><rect x="430" y="301" width="43" height="43" fill="#feb042"/><path d="M 430 344 A 43 43 0 0 1  473 301 L 473 344" fill="#ffd59b"/><rect x="473" y="301" width="43" height="43" fill="#feb144"/><path d="M 473 344 A 43 43 0 0 1  516 301 L 516 344" fill="#ffd1ea"/><rect x="516" y="258" width="86" height="86" fill="#ff7cc4"/><path d="M 516 258 A 86 86 0 0 1  602 344 L 516 258 A 86 86 0 0 0 602 344" fill="#ffcb82"/><rect x="602" y="258" width="86" height="86" fill="#feb143"/><path d="M 602 258 A 86 86 0 0 1  688 344 L 602 258 A 86 86 0 0 0 688 344" fill="#fec97d"/><rect x="688" y="258" width="86" height="86" fill="#ffedd5"/><path d="M 688 258 A 86 86 0 0 1 774 344 L 688 344" fill="#ff5db6"/><rect x="774" y="258" width="86" height="86" fill="#ffe5f3"/><path d="M 774 344 A 86 86 0 0 0 860 258 L 774 258" fill="#ffc0e3"/><rect x="860" y="258" width="86" height="86" fill="#ffffff"/><rect x="860" y="258" width="43" height="43" fill="#feaf40"/><path d="M 860 258 A 43 43 0 0 1 903 301 L 860 301" fill="#ff8ecc"/><rect x="903" y="258" width="43" height="43" fill="#ffc0e3"/><path d="M 903 301 A 43 43 0 0 1  946 258 L 946 301" fill="#ffe6c4"/><rect x="860" y="301" width="43" height="43" fill="#ff4eb0"/><path d="M 860 301 A 43 43 0 0 0 903 344 L 903 301" fill="#ff61b8"/><rect x="903" y="301" width="43" height="43" fill="#ffc2e4"/><path d="M 903 344 A 43 43 0 0 1  946 301 L 903 344 A 43 43 0 0 0 946 301" fill="#ff8ecc"/><rect x="946" y="258" width="86" height="86" fill="#ffffff"/><rect x="946" y="258" width="43" height="43" fill="#fe9c13"/><path d="M 946 258 A 43 43 0 0 0 989 301 L 989 258" fill="#ffe5c0"/><rect x="989" y="258" width="43" height="43" fill="#fea425"/><path d="M 989 258 A 43 43 0 0 1 1032 301 L 989 301" fill="#fea11e"/><rect x="946" y="301" width="43" height="43" fill="#ffa6d7"/><path d="M 946 344 A 43 43 0 0 1  989 301 L 989 344" fill="#ff5db6"/><rect x="989" y="301" width="43" height="43" fill="#ff4daf"/><path d="M 989 301 A 43 43 0 0 0 1032 344 L 1032 301" fill="#fff4e4"/><rect x="1032" y="258" width="86" height="86" fill="#ff98d1"/><path d="M 1032 344 A 86 86 0 0 0 1118 258 L 1032 258" fill="#ff65ba"/><rect x="1118" y="258" width="86" height="86" fill="#ffffff"/><rect x="1118" y="258" width="43" height="43" fill="#ffe9c9"/><path d="M 1118 301 A 43 43 0 0 1  1161 258 L 1118 301 A 43 43 0 0 0 1161 258" fill="#ff7ac3"/><rect x="1161" y="258" width="43" height="43" fill="#ffd59a"/><path d="M 1161 301 A 43 43 0 0 1  1204 258 L 1204 301" fill="#fea72c"/><rect x="1118" y="301" width="43" height="43" fill="#fff4fa"/><path d="M 1118 344 A 43 43 0 0 1  1161 301 L 1118 344 A 43 43 0 0 0 1161 301" fill="#ffedd5"/><rect x="1161" y="301" width="43" height="43" fill="#ffe9f5"/><path d="M 1161 301 A 43 43 0 0 0 1204 344 L 1204 301" fill="#ff66ba"/><rect x="0" y="344" width="86" height="86" fill="#ffd0ea"/><path d="M 0 344 A 86 86 0 0 0 86 430 L 86 344" fill="#febb5d"/><rect x="86" y="344" width="86" height="86" fill="#fe9e17"/><path d="M 86 430 A 86 86 0 0 1  172 344 L 86 430 A 86 86 0 0 0 172 344" fill="#ff75c1"/><rect x="172" y="344" width="86" height="86" fill="#ffcc84"/><path d="M 172 430 A 86 86 0 0 1  258 344 L 172 430 A 86 86 0 0 0 258 344" fill="#ffebd0"/><rect x="258" y="344" width="86" height="86" fill="#fff0f8"/><path d="M 258 344 A 86 86 0 0 0 344 430 L 344 344" fill="#ffcde9"/><rect x="344" y="344" width="86" height="86" fill="#ffdcef"/><path d="M 344 344 A 86 86 0 0 0 430 430 L 430 344" fill="#ffd8ee"/><rect x="430" y="344" width="86" height="86" fill="#ffffff"/><rect x="430" y="344" width="43" height="43" fill="#fff0da"/><path d="M 430 344 A 43 43 0 0 1 473 387 L 430 387" fill="#ffa9d8"/><rect x="473" y="344" width="43" height="43" fill="#feb958"/><path d="M 473 387 A 43 43 0 0 0 516 344 L 473 344" fill="#feaf3f"/><rect x="430" y="387" width="43" height="43" fill="#ffdfb2"/><path d="M 430 387 A 43 43 0 0 1  473 430 L 430 387 A 43 43 0 0 0 473 430" fill="#fffbf6"/><rect x="473" y="387" width="43" height="43" fill="#ff77c2"/><path d="M 473 387 A 43 43 0 0 1 516 430 L 473 430" fill="#febe64"/><rect x="516" y="344" width="86" height="86" fill="#ffa1d5"/><path d="M 516 430 A 86 86 0 0 1  602 344 L 602 430" fill="#fffdfa"/><rect x="602" y="344" width="86" height="86" fill="#ffe2bb"/><path d="M 602 344 A 86 86 0 0 1  688 430 L 602 344 A 86 86 0 0 0 688 430" fill="#fff2df"/><rect x="688" y="344" width="86" height="86" fill="#ffffff"/><rect x="688" y="344" width="43" height="43" fill="#ff87c9"/><path d="M 688 387 A 43 43 0 0 0 731 344 L 688 344" fill="#ffc9e7"/><rect x="731" y="344" width="43" height="43" fill="#fe9d14"/><path d="M 731 387 A 43 43 0 0 1  774 344 L 774 387" fill="#ffce8a"/><rect x="688" y="387" width="43" height="43" fill="#ff7cc4"/><path d="M 688 430 A 43 43 0 0 1  731 387 L 688 430 A 43 43 0 0 0 731 387" fill="#fe9f19"/><rect x="731" y="387" width="43" height="43" fill="#feb854"/><path d="M 731 430 A 43 43 0 0 1  774 387 L 774 430" fill="#fe9c11"/><rect x="774" y="344" width="86" height="86" fill="#ffffff"/><rect x="774" y="344" width="43" height="43" fill="#febb5b"/><path d="M 774 387 A 43 43 0 0 1  817 344 L 774 387 A 43 43 0 0 0 817 344" fill="#ff4eaf"/><rect x="817" y="344" width="43" height="43" fill="#fff5e7"/><path d="M 817 344 A 43 43 0 0 1 860 387 L 817 387" fill="#fea220"/><rect x="774" y="387" width="43" height="43" fill="#ff61b8"/><path d="M 774 387 A 43 43 0 0 1  817 430 L 774 387 A 43 43 0 0 0 817 430" fill="#fea62a"/><rect x="817" y="387" width="43" height="43" fill="#fe9d15"/><path d="M 817 387 A 43 43 0 0 1 860 430 L 817 430" fill="#fffdfb"/><rect x="860" y="344" width="86" height="86" fill="#ffffff"/><rect x="860" y="344" width="43" height="43" fill="#ff85c8"/><path d="M 860 387 A 43 43 0 0 0 903 344 L 860 344" fill="#ff68bb"/><rect x="903" y="344" width="43" height="43" fill="#ffc0e3"/><path d="M 903 344 A 43 43 0 0 1 946 387 L 903 387" fill="#fffcf7"/><rect x="860" y="387" width="43" height="43" fill="#ffcb83"/><path d="M 860 387 A 43 43 0 0 1  903 430 L 860 387 A 43 43 0 0 0 903 430" fill="#ffe1b6"/><rect x="903" y="387" width="43" height="43" fill="#fffeff"/><path d="M 903 387 A 43 43 0 0 1 946 430 L 903 430" fill="#ffc1e3"/><rect x="946" y="344" width="86" height="86" fill="#ffffff"/><rect x="946" y="344" width="43" height="43" fill="#ffc3e4"/><path d="M 946 387 A 43 43 0 0 1  989 344 L 989 387" fill="#ffbfe2"/><rect x="989" y="344" width="43" height="43" fill="#ffb8df"/><path d="M 989 344 A 43 43 0 0 1 1032 387 L 989 387" fill="#ffcee9"/><rect x="946" y="387" width="43" height="43" fill="#ffe2f2"/><path d="M 946 387 A 43 43 0 0 1 989 430 L 946 430" fill="#ff93ce"/><rect x="989" y="387" width="43" height="43" fill="#ff59b4"/><path d="M 989 430 A 43 43 0 0 0 1032 387 L 989 387" fill="#ff7ec5"/><rect x="1032" y="344" width="86" height="86" fill="#ffdcaa"/><path d="M 1032 430 A 86 86 0 0 1  1118 344 L 1032 430 A 86 86 0 0 0 1118 344" fill="#feac38"/><rect x="1118" y="344" width="86" height="86" fill="#ffffff"/><rect x="1118" y="344" width="43" height="43" fill="#ffe5f3"/><path d="M 1118 387 A 43 43 0 0 1  1161 344 L 1118 387 A 43 43 0 0 0 1161 344" fill="#ffe0f1"/><rect x="1161" y="344" width="43" height="43" fill="#fe9a0d"/><path d="M 1161 387 A 43 43 0 0 1  1204 344 L 1161 387 A 43 43 0 0 0 1204 344" fill="#ff6dbd"/><rect x="1118" y="387" width="43" height="43" fill="#fec26d"/><path d="M 1118 387 A 43 43 0 0 0 1161 430 L 1161 387" fill="#ffd395"/><rect x="1161" y="387" width="43" height="43" fill="#ffddae"/><path d="M 1161 430 A 43 43 0 0 0 1204 387 L 1161 387" fill="#ff94cf"/><rect x="0" y="430" width="86" height="86" fill="#ffffff"/><rect x="0" y="430" width="43" height="43" fill="#ff93cf"/><path d="M 0 473 A 43 43 0 0 1  43 430 L 0 473 A 43 43 0 0 0 43 430" fill="#ffa8d8"/><rect x="43" y="430" width="43" height="43" fill="#ffeace"/><path d="M 43 473 A 43 43 0 0 1  86 430 L 43 473 A 43 43 0 0 0 86 430" fill="#ff51b1"/><rect x="0" y="473" width="43" height="43" fill="#ffe8c8"/><path d="M 0 473 A 43 43 0 0 0 43 516 L 43 473" fill="#fea01a"/><rect x="43" y="473" width="43" height="43" fill="#ffe2ba"/><path d="M 43 516 A 43 43 0 0 1  86 473 L 43 516 A 43 43 0 0 0 86 473" fill="#ff9dd3"/><rect x="86" y="430" width="86" height="86" fill="#ff8dcc"/><path d="M 86 430 A 86 86 0 0 1 172 516 L 86 516" fill="#fea62a"/><rect x="172" y="430" width="86" height="86" fill="#ffffff"/><rect x="172" y="430" width="43" height="43" fill="#feb44b"/><path d="M 172 430 A 43 43 0 0 0 215 473 L 215 430" fill="#ff9ad1"/><rect x="215" y="430" width="43" height="43" fill="#ff9cd3"/><path d="M 215 473 A 43 43 0 0 1  258 430 L 258 473" fill="#fea424"/><rect x="172" y="473" width="43" height="43" fill="#ffdeaf"/><path d="M 172 516 A 43 43 0 0 0 215 473 L 172 473" fill="#feaa33"/><rect x="215" y="473" width="43" height="43" fill="#ffcf8c"/><path d="M 215 473 A 43 43 0 0 1  258 516 L 215 473 A 43 43 0 0 0 258 516" fill="#fff6ea"/><rect x="258" y="430" width="86" height="86" fill="#ffffff"/><rect x="258" y="430" width="43" height="43" fill="#ffefd9"/><path d="M 258 473 A 43 43 0 0 1  301 430 L 258 473 A 43 43 0 0 0 301 430" fill="#ffd293"/><rect x="301" y="430" width="43" height="43" fill="#ffc4e5"/><path d="M 301 430 A 43 43 0 0 1  344 473 L 301 430 A 43 43 0 0 0 344 473" fill="#ffe1f1"/><rect x="258" y="473" width="43" height="43" fill="#ffa1d5"/><path d="M 258 473 A 43 43 0 0 1  301 516 L 258 473 A 43 43 0 0 0 301 516" fill="#ffaeda"/><rect x="301" y="473" width="43" height="43" fill="#febe64"/><path d="M 301 473 A 43 43 0 0 1 344 516 L 301 516" fill="#fe9e17"/><rect x="344" y="430" width="86" height="86" fill="#ffffff"/><rect x="344" y="430" width="43" height="43" fill="#ffb6de"/><path d="M 344 473 A 43 43 0 0 1  387 430 L 344 473 A 43 43 0 0 0 387 430" fill="#ffcc85"/><rect x="387" y="430" width="43" height="43" fill="#ff98d1"/><path d="M 387 430 A 43 43 0 0 1 430 473 L 387 473" fill="#feaa33"/><rect x="344" y="473" width="43" height="43" fill="#ffe6f4"/><path d="M 344 473 A 43 43 0 0 1  387 516 L 344 473 A 43 43 0 0 0 387 516" fill="#ffddf0"/><rect x="387" y="473" width="43" height="43" fill="#febe63"/><path d="M 387 516 A 43 43 0 0 1  430 473 L 430 516" fill="#fe990c"/><rect x="430" y="430" width="86" height="86" fill="#feb854"/><path d="M 430 430 A 86 86 0 0 1 516 516 L 430 516" fill="#febc5e"/><rect x="516" y="430" width="86" height="86" fill="#ffffff"/><rect x="516" y="430" width="43" height="43" fill="#ffecd0"/><path d="M 516 430 A 43 43 0 0 1 559 473 L 516 473" fill="#fff3fa"/><rect x="559" y="430" width="43" height="43" fill="#fe9a0d"/><path d="M 559 430 A 43 43 0 0 0 602 473 L 602 430" fill="#ff7cc4"/><rect x="516" y="473" width="43" height="43" fill="#feb650"/><path d="M 516 516 A 43 43 0 0 1  559 473 L 516 516 A 43 43 0 0 0 559 473" fill="#ffa9d8"/><rect x="559" y="473" width="43" height="43" fill="#ff6bbd"/><path d="M 559 516 A 43 43 0 0 1  602 473 L 559 516 A 43 43 0 0 0 602 473" fill="#ffdef0"/><rect x="602" y="430" width="86" height="86" fill="#feb956"/><path d="M 602 430 A 86 86 0 0 1  688 516 L 602 430 A 86 86 0 0 0 688 516" fill="#ff6bbc"/><rect x="688" y="430" width="86" height="86" fill="#ffffff"/><rect x="688" y="430" width="43" height="43" fill="#ff6abc"/><path d="M 688 473 A 43 43 0 0 1  731 430 L 688 473 A 43 43 0 0 0 731 430" fill="#ffe8f5"/><rect x="731" y="430" width="43" height="43" fill="#ffe1f2"/><path d="M 731 473 A 43 43 0 0 1  774 430 L 774 473" fill="#ffeed7"/><rect x="688" y="473" width="43" height="43" fill="#feb144"/><path d="M 688 516 A 43 43 0 0 1  731 473 L 688 516 A 43 43 0 0 0 731 473" fill="#ffadda"/><rect x="731" y="473" width="43" height="43" fill="#ff91ce"/><path d="M 731 516 A 43 43 0 0 1  774 473 L 774 516" fill="#feb144"/><rect x="774" y="430" width="86" height="86" fill="#ffffff"/><rect x="774" y="430" width="43" height="43" fill="#ff7bc4"/><path d="M 774 473 A 43 43 0 0 1  817 430 L 774 473 A 43 43 0 0 0 817 430" fill="#ffefd8"/><rect x="817" y="430" width="43" height="43" fill="#ffc6e5"/><path d="M 817 430 A 43 43 0 0 1  860 473 L 817 430 A 43 43 0 0 0 860 473" fill="#fff2df"/><rect x="774" y="473" width="43" height="43" fill="#ffcfea"/><path d="M 774 473 A 43 43 0 0 1  817 516 L 774 473 A 43 43 0 0 0 817 516" fill="#ffdba9"/><rect x="817" y="473" width="43" height="43" fill="#ff6dbe"/><path d="M 817 516 A 43 43 0 0 1  860 473 L 860 516" fill="#ffe7c6"/><rect x="860" y="430" width="86" height="86" fill="#ffffff"/><rect x="860" y="430" width="43" height="43" fill="#ffeacd"/><path d="M 860 473 A 43 43 0 0 1  903 430 L 860 473 A 43 43 0 0 0 903 430" fill="#ffd395"/><rect x="903" y="430" width="43" height="43" fill="#ffacda"/><path d="M 903 430 A 43 43 0 0 1 946 473 L 903 473" fill="#ff6bbc"/><rect x="860" y="473" width="43" height="43" fill="#ffe7f4"/><path d="M 860 516 A 43 43 0 0 1  903 473 L 903 516" fill="#feba5b"/><rect x="903" y="473" width="43" height="43" fill="#ffd599"/><path d="M 903 473 A 43 43 0 0 1  946 516 L 903 473 A 43 43 0 0 0 946 516" fill="#ffd9a3"/><rect x="946" y="430" width="86" height="86" fill="#ffd191"/><path d="M 946 430 A 86 86 0 0 1  1032 516 L 946 430 A 86 86 0 0 0 1032 516" fill="#feb754"/><rect x="1032" y="430" width="86" height="86" fill="#ff83c7"/><path d="M 1032 516 A 86 86 0 0 0 1118 430 L 1032 430" fill="#ffc3e4"/><rect x="1118" y="430" width="86" height="86" fill="#feaa33"/><path d="M 1118 516 A 86 86 0 0 0 1204 430 L 1118 430" fill="#fe9808"/></g></svg>